<svg width="180" height="180" viewBox="0 0 180 180" xmlns="http://www.w3.org/2000/svg">
  <defs>
    <linearGradient id="sparkGradient" x1="0%" y1="0%" x2="100%" y2="100%">
      <stop offset="0%" style="stop-color:#1DA1F2;stop-opacity:1" />
      <stop offset="50%" style="stop-color:#7C3AED;stop-opacity:1" />
      <stop offset="100%" style="stop-color:#F59E0B;stop-opacity:1" />
    </linearGradient>
    
    <filter id="glow">
      <feGaussianBlur stdDeviation="2" result="coloredBlur"/>
      <feMerge> 
        <feMergeNode in="coloredBlur"/>
        <feMergeNode in="SourceGraphic"/>
      </feMerge>
    </filter>
  </defs>
  
  <!-- Background with rounded corners for iOS -->
  <rect width="180" height="180" rx="40" fill="url(#sparkGradient)"/>
  
  <!-- Central spark burst -->
  <g transform="translate(90, 90)">
    <circle cx="0" cy="0" r="12" fill="white" filter="url(#glow)"/>
    
    <!-- Radiating lines -->
    <g stroke="white" stroke-width="4" stroke-linecap="round" opacity="0.9">
      <line x1="0" y1="-25" x2="0" y2="-35"/>
      <line x1="18" y1="-18" x2="25" y2="-25"/>
      <line x1="25" y1="0" x2="35" y2="0"/>
      <line x1="18" y1="18" x2="25" y2="25"/>
      <line x1="0" y1="25" x2="0" y2="35"/>
      <line x1="-18" y1="18" x2="-25" y2="25"/>
      <line x1="-25" y1="0" x2="-35" y2="0"/>
      <line x1="-18" y1="-18" x2="-25" y2="-25"/>
    </g>
  </g>
  
  <!-- Lightning bolt -->
  <path d="M50 45 L70 75 L60 75 L80 105 L60 105 L40 135 L50 105 L60 105 L40 75 L50 75 Z" 
        fill="white" opacity="0.8"/>
  
  <!-- X symbol -->
  <g transform="translate(120, 50)" stroke="white" stroke-width="6" stroke-linecap="round" opacity="0.8">
    <line x1="0" y1="0" x2="20" y2="20"/>
    <line x1="20" y1="0" x2="0" y2="20"/>
  </g>
  
  <!-- Message bubbles -->
  <g transform="translate(110, 120)" fill="white" opacity="0.7">
    <ellipse cx="0" cy="0" rx="18" ry="10"/>
    <ellipse cx="25" cy="-8" rx="15" ry="8"/>
    <ellipse cx="45" cy="3" rx="12" ry="6"/>
  </g>
</svg> 