<svg width="200" height="200" viewBox="0 0 200 200" xmlns="http://www.w3.org/2000/svg">
  <defs>
    <!-- Gradient for the spark effect -->
    <linearGradient id="sparkGradient" x1="0%" y1="0%" x2="100%" y2="100%">
      <stop offset="0%" style="stop-color:#1DA1F2;stop-opacity:1" />
      <stop offset="50%" style="stop-color:#7C3AED;stop-opacity:1" />
      <stop offset="100%" style="stop-color:#F59E0B;stop-opacity:1" />
    </linearGradient>
    
    <!-- Gradient for the X -->
    <linearGradient id="xGradient" x1="0%" y1="0%" x2="100%" y2="100%">
      <stop offset="0%" style="stop-color:#000000;stop-opacity:1" />
      <stop offset="100%" style="stop-color:#1F2937;stop-opacity:1" />
    </linearGradient>
    
    <!-- Glow effect -->
    <filter id="glow">
      <feGaussianBlur stdDeviation="3" result="coloredBlur"/>
      <feMerge> 
        <feMergeNode in="coloredBlur"/>
        <feMergeNode in="SourceGraphic"/>
      </feMerge>
    </filter>
  </defs>
  
  <!-- Background circle -->
  <circle cx="100" cy="100" r="95" fill="url(#sparkGradient)" opacity="0.1"/>
  
  <!-- Spark/Lightning elements -->
  <path d="M60 40 L80 70 L70 70 L90 100 L70 100 L50 130 L60 100 L70 100 L50 70 L60 70 Z" 
        fill="url(#sparkGradient)" filter="url(#glow)" opacity="0.8"/>
  
  <!-- X symbol (stylized) -->
  <g transform="translate(120, 60)">
    <path d="M0 0 L20 20 M20 0 L0 20" 
          stroke="url(#xGradient)" 
          stroke-width="4" 
          stroke-linecap="round"/>
  </g>
  
  <!-- AI Brain/Circuit pattern -->
  <g transform="translate(130, 90)" opacity="0.7">
    <circle cx="0" cy="0" r="3" fill="url(#sparkGradient)"/>
    <circle cx="15" cy="5" r="2" fill="url(#sparkGradient)"/>
    <circle cx="10" cy="15" r="2" fill="url(#sparkGradient)"/>
    <circle cx="-5" cy="12" r="2" fill="url(#sparkGradient)"/>
    
    <!-- Connecting lines -->
    <line x1="0" y1="0" x2="15" y2="5" stroke="url(#sparkGradient)" stroke-width="1"/>
    <line x1="0" y1="0" x2="10" y2="15" stroke="url(#sparkGradient)" stroke-width="1"/>
    <line x1="0" y1="0" x2="-5" y2="12" stroke="url(#sparkGradient)" stroke-width="1"/>
  </g>
  
  <!-- Reply/Message bubbles -->
  <g transform="translate(70, 130)" opacity="0.6">
    <ellipse cx="0" cy="0" rx="15" ry="8" fill="url(#sparkGradient)"/>
    <ellipse cx="20" cy="-5" rx="12" ry="6" fill="url(#sparkGradient)"/>
    <ellipse cx="35" cy="2" rx="10" ry="5" fill="url(#sparkGradient)"/>
  </g>
  
  <!-- Central spark burst -->
  <g transform="translate(100, 100)">
    <circle cx="0" cy="0" r="8" fill="url(#sparkGradient)" filter="url(#glow)"/>
    
    <!-- Radiating lines -->
    <g opacity="0.8">
      <line x1="0" y1="-15" x2="0" y2="-25" stroke="url(#sparkGradient)" stroke-width="2" stroke-linecap="round"/>
      <line x1="11" y1="-11" x2="18" y2="-18" stroke="url(#sparkGradient)" stroke-width="2" stroke-linecap="round"/>
      <line x1="15" y1="0" x2="25" y2="0" stroke="url(#sparkGradient)" stroke-width="2" stroke-linecap="round"/>
      <line x1="11" y1="11" x2="18" y2="18" stroke="url(#sparkGradient)" stroke-width="2" stroke-linecap="round"/>
      <line x1="0" y1="15" x2="0" y2="25" stroke="url(#sparkGradient)" stroke-width="2" stroke-linecap="round"/>
      <line x1="-11" y1="11" x2="-18" y2="18" stroke="url(#sparkGradient)" stroke-width="2" stroke-linecap="round"/>
      <line x1="-15" y1="0" x2="-25" y2="0" stroke="url(#sparkGradient)" stroke-width="2" stroke-linecap="round"/>
      <line x1="-11" y1="-11" x2="-18" y2="-18" stroke="url(#sparkGradient)" stroke-width="2" stroke-linecap="round"/>
    </g>
  </g>
  
  <!-- Text "SR" for SparkReply -->
  <text x="100" y="180" text-anchor="middle" font-family="Arial, sans-serif" font-size="24" font-weight="bold" fill="url(#sparkGradient)">SR</text>
</svg> 